<?xml version="1.0" encoding="UTF-8"?>
<!DOCTYPE svg PUBLIC "-//W3C//DTD SVG 1.1//EN" "http://www.w3.org/Graphics/SVG/1.1/DTD/svg11.dtd">
<svg xmlns="http://www.w3.org/2000/svg" version="1.1" width="100px" height="100px" style="shape-rendering:geometricPrecision; text-rendering:geometricPrecision; image-rendering:optimizeQuality; fill-rule:evenodd; clip-rule:evenodd" xmlns:xlink="http://www.w3.org/1999/xlink">
<g><path style="opacity:1" fill="#00142e" d="M -0.5,-0.5 C 32.8333,-0.5 66.1667,-0.5 99.5,-0.5C 99.5,32.8333 99.5,66.1667 99.5,99.5C 66.1667,99.5 32.8333,99.5 -0.5,99.5C -0.5,66.1667 -0.5,32.8333 -0.5,-0.5 Z"/></g>
<g><path style="opacity:1" fill="#fefffe" d="M 73.5,28.5 C 72.1667,28.5 70.8333,28.5 69.5,28.5C 69.5,29.8333 69.5,31.1667 69.5,32.5C 66.8333,32.5 64.1667,32.5 61.5,32.5C 61.5,43.1667 61.5,53.8333 61.5,64.5C 60.1667,64.5 58.8333,64.5 57.5,64.5C 57.5,65.8333 57.5,67.1667 57.5,68.5C 56.1667,68.5 54.8333,68.5 53.5,68.5C 53.5,56.5 53.5,44.5 53.5,32.5C 50.1667,32.5 46.8333,32.5 43.5,32.5C 43.5,45.8333 43.5,59.1667 43.5,72.5C 40.8333,72.5 38.1667,72.5 35.5,72.5C 35.5,59.1667 35.5,45.8333 35.5,32.5C 30.1667,32.5 24.8333,32.5 19.5,32.5C 19.5,29.8333 19.5,27.1667 19.5,24.5C 37.5,24.5 55.5,24.5 73.5,24.5C 73.5,25.8333 73.5,27.1667 73.5,28.5 Z"/></g>
<g><path style="opacity:1" fill="#00142e" d="M 73.5,28.5 C 73.5,29.8333 73.5,31.1667 73.5,32.5C 72.1667,32.5 70.8333,32.5 69.5,32.5C 69.5,31.1667 69.5,29.8333 69.5,28.5C 70.8333,28.5 72.1667,28.5 73.5,28.5 Z"/></g>
<g><path style="opacity:1" fill="#fefffe" d="M 73.5,28.5 C 74.8333,28.5 76.1667,28.5 77.5,28.5C 77.5,43.1667 77.5,57.8333 77.5,72.5C 70.8333,72.5 64.1667,72.5 57.5,72.5C 57.5,71.1667 57.5,69.8333 57.5,68.5C 58.8333,68.5 60.1667,68.5 61.5,68.5C 61.5,67.1667 61.5,65.8333 61.5,64.5C 64.1667,64.5 66.8333,64.5 69.5,64.5C 69.5,53.8333 69.5,43.1667 69.5,32.5C 70.8333,32.5 72.1667,32.5 73.5,32.5C 73.5,31.1667 73.5,29.8333 73.5,28.5 Z"/></g>
<g><path style="opacity:1" fill="#00142e" d="M 69.5,32.5 C 69.5,43.1667 69.5,53.8333 69.5,64.5C 66.8333,64.5 64.1667,64.5 61.5,64.5C 61.5,53.8333 61.5,43.1667 61.5,32.5C 64.1667,32.5 66.8333,32.5 69.5,32.5 Z"/></g>
<g><path style="opacity:1" fill="#00142e" d="M 61.5,64.5 C 61.5,65.8333 61.5,67.1667 61.5,68.5C 60.1667,68.5 58.8333,68.5 57.5,68.5C 57.5,67.1667 57.5,65.8333 57.5,64.5C 58.8333,64.5 60.1667,64.5 61.5,64.5 Z"/></g>
<g><path style="opacity:1" fill="#fefffe" d="M 80.5,64.5 C 83.1667,64.5 85.8333,64.5 88.5,64.5C 88.5,67.1667 88.5,69.8333 88.5,72.5C 85.8333,72.5 83.1667,72.5 80.5,72.5C 80.5,69.8333 80.5,67.1667 80.5,64.5 Z"/></g>
</svg>
